<?xml version="1.0" standalone="no"?>
<!DOCTYPE svg PUBLIC "-//W3C//DTD SVG 20010904//EN"
 "http://www.w3.org/TR/2001/REC-SVG-20010904/DTD/svg10.dtd">
<svg version="1.0" xmlns="http://www.w3.org/2000/svg"
 width="64.000000pt" height="64.000000pt" viewBox="0 0 64.000000 64.000000"
 preserveAspectRatio="xMidYMid meet">

<g transform="translate(0.000000,64.000000) scale(0.100000,-0.100000)"
fill="#000000" stroke="none">
<path d="M85 405 c-35 -34 -34 -87 2 -123 21 -21 26 -35 24 -62 -1 -19 -8 -37
-14 -39 -6 -2 -21 -14 -34 -27 -32 -32 -31 -87 2 -119 l24 -25 261 0 c167 0
260 4 260 10 0 6 -90 10 -250 10 l-251 0 -24 25 c-31 31 -31 49 0 80 20 21 34
25 80 25 30 0 55 5 55 10 0 6 -13 10 -29 10 -28 0 -61 22 -61 40 0 5 7 16 16
24 13 14 48 16 225 16 133 0 209 4 209 10 0 6 -82 10 -225 10 l-226 0 -24 25
c-31 31 -31 49 0 80 l24 25 226 0 c143 0 225 4 225 10 0 6 -85 10 -235 10
l-236 0 -24 -25z"/>
<path d="M257 214 c-4 -4 -7 -31 -7 -60 0 -53 0 -53 24 -43 17 8 29 8 45 -1
22 -11 22 -10 19 47 l-3 58 -35 3 c-20 2 -39 0 -43 -4z"/>
<path d="M370 170 c0 -6 47 -10 120 -10 73 0 120 4 120 10 0 6 -47 10 -120 10
-73 0 -120 -4 -120 -10z"/>
</g>
</svg>
