<?xml version="1.0" standalone="no"?>
<!DOCTYPE svg PUBLIC "-//W3C//DTD SVG 20010904//EN"
 "http://www.w3.org/TR/2001/REC-SVG-20010904/DTD/svg10.dtd">
<svg version="1.0" xmlns="http://www.w3.org/2000/svg"
 width="50.000000pt" height="50.000000pt" viewBox="0 0 50.000000 50.000000"
 preserveAspectRatio="xMidYMid meet">

<g transform="translate(0.000000,50.000000) scale(0.100000,-0.100000)"
fill="#000000" stroke="none">
<path d="M70 250 l0 -230 180 0 180 0 0 230 0 230 -180 0 -180 0 0 -230z m340
0 l0 -210 -160 0 -160 0 0 210 0 210 160 0 160 0 0 -210z"/>
<path d="M120 350 l0 -60 60 0 60 0 0 60 0 60 -60 0 -60 0 0 -60z m100 0 l0
-40 -40 0 -40 0 0 40 0 40 40 0 40 0 0 -40z"/>
<path d="M260 350 l0 -60 60 0 60 0 0 60 0 60 -60 0 -60 0 0 -60z m100 0 l0
-40 -40 0 -40 0 0 40 0 40 40 0 40 0 0 -40z"/>
<path d="M120 170 l0 -100 130 0 130 0 0 100 0 100 -130 0 -130 0 0 -100z
m240 0 l0 -80 -110 0 -110 0 0 80 0 80 110 0 110 0 0 -80z"/>
</g>
</svg>
